<?xml version="1.0" standalone="no"?>
<!DOCTYPE svg PUBLIC "-//W3C//DTD SVG 20010904//EN"
 "http://www.w3.org/TR/2001/REC-SVG-20010904/DTD/svg10.dtd">
<svg version="1.0" xmlns="http://www.w3.org/2000/svg"
 width="100.000000pt" height="100.000000pt" viewBox="0 0 100.000000 100.000000"
 preserveAspectRatio="xMidYMid meet">
<metadata>
Created by potrace 1.14, written by Peter Selinger 2001-2017
</metadata>
<g transform="translate(0.000000,100.000000) scale(0.100000,-0.100000)"
fill="#000000" stroke="none">
<path d="M202 978 c-7 -7 -12 -18 -12 -25 0 -9 -15 -13 -44 -13 -47 0 -58 -9
-62 -48 -2 -14 -10 -40 -19 -59 -16 -34 -16 -68 0 -106 5 -12 3 -17 -5 -15 -6
2 -17 -5 -23 -15 -14 -21 4 -37 34 -30 29 8 25 -35 -3 -47 -22 -8 -22 -9 -2
-9 11 -1 25 -6 31 -12 6 -6 17 -11 25 -13 18 -2 48 -30 48 -44 0 -8 -45 -22
-72 -22 -5 0 -7 10 -3 23 5 19 5 20 -5 4 -9 -14 -8 -23 4 -42 8 -13 16 -39 18
-59 2 -32 5 -36 30 -36 21 0 28 5 28 20 0 15 -7 20 -25 20 -34 0 -31 15 10 54
23 22 35 43 35 60 0 15 6 26 14 26 9 0 15 -21 20 -72 11 -117 26 -179 60 -243
32 -62 141 -185 163 -185 7 0 13 -7 13 -16 0 -13 -8 -15 -37 -10 -89 13 -105
18 -100 36 3 12 -9 29 -37 51 -95 79 -108 94 -100 124 l7 29 -31 -23 c-18 -12
-32 -28 -32 -35 0 -7 18 -32 40 -57 22 -24 40 -47 40 -50 0 -3 16 -14 35 -25
23 -12 35 -26 35 -40 0 -31 40 -44 135 -44 50 0 85 -4 85 -10 0 -5 7 -10 15
-10 8 0 15 5 15 10 0 6 33 10 78 10 81 0 126 17 116 44 -3 8 9 22 29 34 29 19
99 93 120 129 4 7 -2 21 -15 32 -28 27 -36 26 -31 -2 5 -23 -27 -57 -114 -126
-19 -15 -29 -30 -26 -41 4 -15 -5 -20 -47 -29 -101 -22 -118 -7 -49 44 104 77
189 241 189 366 0 26 3 61 6 78 8 40 34 41 34 2 0 -22 10 -38 37 -60 l36 -30
18 21 c24 27 19 62 -9 66 -34 5 -26 22 18 40 41 18 55 34 21 25 -15 -4 -19 0
-16 14 2 10 4 21 4 26 1 4 12 5 25 3 15 -3 27 1 30 10 6 16 -21 47 -35 39 -12
-8 -11 -2 5 31 8 15 13 30 11 34 -2 4 -6 19 -9 35 -3 16 -10 31 -15 34 -9 6
-18 41 -20 79 -1 7 -13 12 -28 12 -66 0 -73 2 -73 15 0 31 -40 35 -322 35
-208 0 -287 -3 -296 -12z"/>
<path d="M900 452 c0 -7 -13 -12 -30 -12 -20 0 -30 -5 -30 -15 0 -10 10 -15
29 -15 21 0 30 6 34 22 4 12 4 24 2 27 -3 2 -5 -1 -5 -7z"/>
<path d="M918 357 c12 -33 20 -43 33 -40 32 9 35 53 3 53 -8 0 -14 5 -14 12 0
6 -3 8 -7 5 -3 -4 -12 -2 -18 3 -9 7 -8 -4 3 -33z"/>
<path d="M46 360 c-17 -19 -10 -40 13 -40 14 0 41 36 41 55 0 10 -42 -1 -54
-15z"/>
</g>
</svg>
